<svg width="43" height="46" viewBox="0 0 43 46" fill="none" xmlns="http://www.w3.org/2000/svg">
<g id="Group">
<path id="Vector" fill-rule="evenodd" clip-rule="evenodd" d="M18.7478 15.1174C19.2125 14.6436 19.8424 14.3775 20.4992 14.3775C21.1559 14.3775 21.7858 14.6436 22.2505 15.1174L31.5985 24.657C31.8286 24.892 32.0111 25.171 32.1356 25.478C32.2601 25.785 32.3241 26.114 32.324 26.4463C32.324 26.7785 32.2598 27.1075 32.1352 27.4145C32.0105 27.7214 31.8279 28.0003 31.5977 28.2352C31.3675 28.4701 31.0942 28.6564 30.7935 28.7834C30.4928 28.9105 30.1705 28.9759 29.845 28.9758C29.5195 28.9757 29.1972 28.9102 28.8965 28.783C28.5959 28.6558 28.3227 28.4693 28.0926 28.2343L20.4992 20.4826L12.9057 28.2343C12.6772 28.4761 12.4038 28.6689 12.1015 28.8017C11.7992 28.9344 11.4741 29.0043 11.145 29.0074C10.816 29.0105 10.4896 28.9466 10.185 28.8196C9.88033 28.6925 9.60354 28.5048 9.37074 28.2674C9.13794 28.0299 8.95379 27.7476 8.82904 27.4367C8.70428 27.1258 8.64142 26.7927 8.64413 26.4568C8.64683 26.1209 8.71504 25.7889 8.84478 25.4802C8.97452 25.1714 9.16319 24.8922 9.39978 24.6587L18.7462 15.1157L18.7478 15.1174Z" fill="#E58E09"/>
</g>
</svg>
