<svg width="26" height="21" viewBox="0 0 26 21" fill="none" xmlns="http://www.w3.org/2000/svg">
<path id="Vector" d="M10.6636 13.453V13.3806C10.6636 10.4515 12.9581 7.9872 16.0707 7.26893C15.6566 4.58039 12.8922 2.38705 9.4122 2.38705C5.63532 2.38705 2.70028 4.97164 2.70028 7.96851C2.70028 9.10022 3.10982 10.1876 3.8834 11.1196C3.9198 11.1639 3.97782 11.2293 4.05631 11.3123C4.72512 12.0179 5.12895 12.9439 5.1962 13.9261C6.0086 13.444 6.9572 13.2618 7.88439 13.4098C8.07323 13.4402 8.22795 13.4636 8.34512 13.4799C9.11532 13.583 9.89584 13.574 10.6636 13.453ZM11.1835 15.7316C10.1486 15.9142 9.0928 15.9358 8.05162 15.7959C7.87916 15.7723 7.70699 15.7466 7.53514 15.7188C7.11012 15.6506 6.67526 15.7378 6.30652 15.9652L4.1405 17.306C3.97368 17.4115 3.77833 17.4594 3.58307 17.4426C3.46497 17.4335 3.3498 17.4005 3.24416 17.3456C3.13851 17.2906 3.04447 17.2148 2.96742 17.1225C2.89037 17.0301 2.83184 16.9231 2.79517 16.8075C2.7585 16.6919 2.74443 16.57 2.75375 16.4487L2.92439 14.3687C2.94565 14.1078 2.91207 13.8452 2.8259 13.5988C2.73974 13.3524 2.60301 13.1278 2.42498 12.9403C2.33043 12.8414 2.23899 12.7393 2.15081 12.6343C1.06553 11.3263 0.425049 9.71221 0.425049 7.96851C0.425049 3.59467 4.44879 0.0500488 9.4122 0.0500488C14.0309 0.0500488 17.834 3.11816 18.3425 7.06688C22.1774 7.24674 25.225 10.0042 25.225 13.3806C25.225 14.774 24.7063 16.0622 23.8269 17.1063C23.7689 17.1764 23.695 17.2581 23.6051 17.3515C23.4611 17.5003 23.3504 17.6794 23.2805 17.8764C23.2105 18.0734 23.1831 18.2836 23.2001 18.4926L23.3377 20.1534C23.3447 20.2508 23.3329 20.3487 23.3029 20.4414C23.2729 20.5342 23.2253 20.6199 23.1629 20.6937C23.1006 20.7675 23.0246 20.8279 22.9394 20.8715C22.8542 20.915 22.7615 20.9409 22.6666 20.9476C22.5089 20.9606 22.3512 20.9222 22.2161 20.8378L20.4596 19.7668C20.1603 19.585 19.809 19.5152 19.4653 19.5694C19.2981 19.5963 19.1581 19.6161 19.0467 19.6313C18.6811 19.6792 18.3129 19.7034 17.9443 19.7037C14.8796 19.7037 12.2585 18.0581 11.1835 15.7316ZM19.1206 17.2616C19.7622 17.1604 20.4184 17.2304 21.0261 17.4648C21.1862 16.8027 21.517 16.1972 21.984 15.7118C22.0409 15.6522 22.083 15.6067 22.1046 15.5798C22.6609 14.9199 22.9498 14.1631 22.9498 13.3806C22.9498 11.2737 20.7849 9.39337 17.9443 9.39337C15.1037 9.39337 12.9388 11.2737 12.9388 13.3806C12.9388 15.4876 15.1037 17.3679 17.9443 17.3679C18.2159 17.3682 18.4872 17.3506 18.7566 17.3153C18.8476 17.3037 18.9704 17.285 19.1206 17.2616Z" fill="#E58E09"/>
</svg>
