<svg width="28" height="27" viewBox="0 0 28 27" fill="none" xmlns="http://www.w3.org/2000/svg">
<g id="mingcute:notification-line" clip-path="url(#clip0_3_136)">
<g id="Group">
<path id="Vector" fill-rule="evenodd" clip-rule="evenodd" d="M17.3 21.375C17.3002 21.9426 17.0858 22.4894 16.6998 22.9056C16.3138 23.3218 15.7848 23.5768 15.2188 23.6194L15.05 23.625H12.8C12.2324 23.6252 11.6856 23.4108 11.2694 23.0248C10.8532 22.6388 10.5982 22.1098 10.5556 21.5437L10.55 21.375H17.3ZM13.925 2.25C15.9669 2.24997 17.9289 3.04301 19.3973 4.46183C20.8656 5.88066 21.7255 7.81435 21.7955 9.855L21.8 10.125V14.3595L23.8498 18.459C23.9392 18.6379 23.984 18.8358 23.9802 19.0357C23.9765 19.2357 23.9243 19.4318 23.8282 19.6072C23.7321 19.7825 23.5949 19.932 23.4284 20.0428C23.2619 20.1536 23.071 20.2224 22.8721 20.2432L22.7428 20.25H5.10725C4.90719 20.2501 4.71009 20.2016 4.53285 20.1088C4.35561 20.016 4.20351 19.8816 4.08959 19.7171C3.97568 19.5527 3.90333 19.363 3.87876 19.1645C3.85418 18.9659 3.87811 18.7644 3.9485 18.5771L4.00025 18.459L6.05 14.3595V10.125C6.05 8.03642 6.87969 6.03338 8.35653 4.55653C9.83338 3.07969 11.8364 2.25 13.925 2.25ZM13.925 4.5C12.4755 4.50008 11.0819 5.05973 10.035 6.06224C8.98806 7.06475 8.36854 8.43272 8.30563 9.88088L8.3 10.125V14.3595C8.30001 14.6385 8.24813 14.9151 8.147 15.1751L8.06263 15.3664L6.74638 18H21.1047L19.7885 15.3652C19.6636 15.1158 19.5862 14.8453 19.5601 14.5676L19.55 14.3595V10.125C19.55 8.63316 18.9574 7.20242 17.9025 6.14752C16.8476 5.09263 15.4168 4.5 13.925 4.5Z" fill="#E58E09"/>
</g>
</g>
<defs>
<clipPath id="clip0_3_136">
<rect width="27" height="27" fill="white" transform="translate(0.425049)"/>
</clipPath>
</defs>
</svg>
