<svg width="25" height="25" viewBox="0 0 25 25" fill="none" xmlns="http://www.w3.org/2000/svg">
<path d="M10.3749 6.5C10.3747 8.16877 10.8715 9.79979 11.802 11.1851C12.7325 12.5703 14.0545 13.647 15.5994 14.2779C17.1444 14.9087 18.8422 15.0651 20.4764 14.7271C22.1105 14.3891 23.607 13.572 24.7749 12.38V12.5C24.7749 19.1276 19.4025 24.5 12.7749 24.5C6.1473 24.5 0.774902 19.1276 0.774902 12.5C0.774902 5.8724 6.1473 0.5 12.7749 0.5H12.8949C12.0958 1.28139 11.4612 2.21481 11.0284 3.24526C10.5956 4.27571 10.3734 5.38235 10.3749 6.5ZM3.1749 12.5C3.17403 14.642 3.88953 16.7227 5.20757 18.4112C6.52561 20.0996 8.37046 21.2987 10.4486 21.8178C12.5267 22.3368 14.7188 22.146 16.6759 21.2756C18.6331 20.4052 20.2429 18.9052 21.2493 17.0144C19.4582 17.4364 17.589 17.3937 15.8191 16.8905C14.0491 16.3872 12.4371 15.4401 11.136 14.1389C9.8348 12.8378 8.88768 11.2258 8.38444 9.45581C7.8812 7.68586 7.83854 5.81667 8.2605 4.0256C6.724 4.84417 5.43904 6.0652 4.54321 7.55797C3.64738 9.05075 3.17439 10.7591 3.1749 12.5Z" fill="#E58E09"/>
</svg>
