<svg width="20" height="25" viewBox="0 0 20 25" fill="none" xmlns="http://www.w3.org/2000/svg">
<path id="Vector" d="M19.2251 24.5H16.8501V22.2143C16.8501 21.305 16.4748 20.4329 15.8067 19.7899C15.1386 19.1469 14.2324 18.7857 13.2876 18.7857H6.1626C5.21776 18.7857 4.31163 19.1469 3.64353 19.7899C2.97543 20.4329 2.6001 21.305 2.6001 22.2143V24.5H0.225098V22.2143C0.225098 20.6988 0.850654 19.2453 1.96415 18.1737C3.07765 17.102 4.58787 16.5 6.1626 16.5H13.2876C14.8623 16.5 16.3725 17.102 17.486 18.1737C18.5995 19.2453 19.2251 20.6988 19.2251 22.2143V24.5ZM9.7251 14.2143C8.78943 14.2143 7.86292 14.0369 6.99848 13.6923C6.13403 13.3477 5.34858 12.8426 4.68696 12.2059C4.02534 11.5691 3.50052 10.8132 3.14246 9.98126C2.78439 9.14931 2.6001 8.25764 2.6001 7.35714C2.6001 6.45665 2.78439 5.56498 3.14246 4.73303C3.50052 3.90108 4.02534 3.14516 4.68696 2.50841C5.34858 1.87167 6.13403 1.36657 6.99848 1.02197C7.86292 0.677365 8.78943 0.5 9.7251 0.5C11.6148 0.5 13.427 1.22245 14.7632 2.50841C16.0994 3.79437 16.8501 5.53852 16.8501 7.35714C16.8501 9.17577 16.0994 10.9199 14.7632 12.2059C13.427 13.4918 11.6148 14.2143 9.7251 14.2143ZM9.7251 11.9286C10.9849 11.9286 12.1931 11.4469 13.0839 10.5896C13.9747 9.73232 14.4751 8.56956 14.4751 7.35714C14.4751 6.14472 13.9747 4.98196 13.0839 4.12465C12.1931 3.26735 10.9849 2.78571 9.7251 2.78571C8.46532 2.78571 7.25714 3.26735 6.36634 4.12465C5.47554 4.98196 4.9751 6.14472 4.9751 7.35714C4.9751 8.56956 5.47554 9.73232 6.36634 10.5896C7.25714 11.4469 8.46532 11.9286 9.7251 11.9286Z" fill="#E58E09"/>
</svg>
