<svg width="23" height="23" viewBox="0 0 23 23" fill="none" xmlns="http://www.w3.org/2000/svg">
<path id="Vector" d="M20.656 12.2589C20.4793 12.0491 20.3819 11.7793 20.3819 11.5C20.3819 11.2207 20.4793 10.9509 20.656 10.7411L22.0664 9.08533C22.2218 8.90442 22.3183 8.67679 22.342 8.4351C22.3658 8.19341 22.3156 7.95007 22.1986 7.74001L19.9949 3.76155C19.8791 3.55173 19.7028 3.38541 19.4911 3.28631C19.2794 3.1872 19.0431 3.16037 18.8159 3.20963L16.7444 3.64657C16.4809 3.7034 16.2065 3.65759 15.973 3.51779C15.7396 3.37798 15.5633 3.15384 15.4773 2.88767L14.8052 0.783457C14.7313 0.555074 14.5904 0.35671 14.4026 0.216403C14.2148 0.0760954 13.9894 0.000941488 13.7584 0.00156374H9.35106C9.11078 -0.0115238 8.87301 0.0578214 8.67405 0.199008C8.47509 0.340195 8.32588 0.545462 8.24921 0.783457L7.63218 2.88767C7.54624 3.15384 7.36991 3.37798 7.13648 3.51779C6.90304 3.65759 6.62864 3.7034 6.36506 3.64657L4.2385 3.20963C4.02314 3.17787 3.8036 3.21333 3.60752 3.31155C3.41145 3.40977 3.24761 3.56634 3.13665 3.76155L0.932963 7.74001C0.813038 7.94773 0.759116 8.1897 0.778906 8.43132C0.798696 8.67295 0.891184 8.90186 1.04315 9.08533L2.44249 10.7411C2.61914 10.9509 2.71656 11.2207 2.71656 11.5C2.71656 11.7793 2.61914 12.0491 2.44249 12.2589L1.04315 13.9147C0.891184 14.0981 0.798696 14.327 0.778906 14.5687C0.759116 14.8103 0.813038 15.0523 0.932963 15.26L3.13665 19.2384C3.25245 19.4483 3.42877 19.6146 3.64047 19.7137C3.85218 19.8128 4.08845 19.8396 4.31563 19.7904L6.3871 19.3534C6.65068 19.2966 6.92508 19.3424 7.15851 19.4822C7.39195 19.622 7.56828 19.8462 7.65422 20.1123L8.32634 22.2165C8.40301 22.4545 8.55222 22.6598 8.75118 22.801C8.95014 22.9422 9.18791 23.0115 9.42819 22.9984H13.8356C14.0666 22.9991 14.2919 22.9239 14.4797 22.7836C14.6676 22.6433 14.8084 22.4449 14.8823 22.2165L15.5544 20.1123C15.6404 19.8462 15.8167 19.622 16.0502 19.4822C16.2836 19.3424 16.558 19.2966 16.8216 19.3534L18.893 19.7904C19.1202 19.8396 19.3565 19.8128 19.5682 19.7137C19.7799 19.6146 19.9562 19.4483 20.072 19.2384L22.2757 15.26C22.3927 15.0499 22.4429 14.8066 22.4192 14.5649C22.3954 14.3232 22.2989 14.0956 22.1435 13.9147L20.656 12.2589ZM19.0142 13.7997L19.8957 14.8345L18.4854 17.3872L17.1852 17.1112C16.3916 16.942 15.5661 17.0826 14.8653 17.5066C14.1646 17.9305 13.6374 18.6081 13.3838 19.4109L12.9651 20.6987H10.1444L9.74772 19.3879C9.49414 18.5852 8.96694 17.9075 8.26619 17.4836C7.56544 17.0596 6.73993 16.919 5.94636 17.0882L4.64618 17.3642L3.21378 14.823L4.09526 13.7882C4.63732 13.1557 4.93699 12.337 4.93699 11.4885C4.93699 10.64 4.63732 9.82125 4.09526 9.18881L3.21378 8.15395L4.62414 5.6243L5.92432 5.90026C6.71789 6.06954 7.5434 5.92887 8.24415 5.50494C8.9449 5.08102 9.4721 4.40335 9.72569 3.60057L10.1444 2.30125H12.9651L13.3838 3.61207C13.6374 4.41485 14.1646 5.09251 14.8653 5.51644C15.5661 5.94037 16.3916 6.08104 17.1852 5.91176L18.4854 5.6358L19.8957 8.18845L19.0142 9.22331C18.4783 9.8543 18.1823 10.6683 18.1823 11.5115C18.1823 12.3547 18.4783 13.1687 19.0142 13.7997ZM11.5547 6.90063C10.6831 6.90063 9.83093 7.17037 9.10614 7.67576C8.38135 8.18115 7.81644 8.89947 7.48286 9.73989C7.14928 10.5803 7.062 11.5051 7.23206 12.3973C7.40211 13.2895 7.82188 14.109 8.43826 14.7522C9.05464 15.3955 9.83996 15.8335 10.6949 16.011C11.5499 16.1885 12.436 16.0974 13.2414 15.7493C14.0467 15.4012 14.7351 14.8116 15.2194 14.0553C15.7036 13.2989 15.9621 12.4097 15.9621 11.5C15.9621 10.2802 15.4978 9.1103 14.6712 8.24775C13.8447 7.3852 12.7237 6.90063 11.5547 6.90063ZM11.5547 13.7997C11.1189 13.7997 10.6928 13.6648 10.3304 13.4121C9.96805 13.1594 9.6856 12.8003 9.5188 12.3801C9.35201 11.9598 9.30837 11.4974 9.3934 11.0514C9.47843 10.6053 9.68831 10.1955 9.9965 9.87388C10.3047 9.55226 10.6974 9.33323 11.1248 9.2445C11.5523 9.15577 11.9954 9.20131 12.3981 9.37537C12.8007 9.54942 13.1449 9.84418 13.3871 10.2224C13.6292 10.6005 13.7584 11.0452 13.7584 11.5C13.7584 12.1099 13.5263 12.6948 13.113 13.1261C12.6997 13.5574 12.1392 13.7997 11.5547 13.7997Z" fill="#E58E09"/>
</svg>
