<svg width="35" height="35" viewBox="0 0 35 35" fill="none" xmlns="http://www.w3.org/2000/svg">
<g id="&#208;&#160;&#208;&#181;&#208;&#180;&#208;&#176;&#208;&#186;&#209;&#130;&#208;&#184;&#209;&#128;&#208;&#190;&#208;&#178;&#208;&#176;&#208;&#189;&#208;&#184;&#208;&#181;" filter="url(#filter0_d_3_283)">
<path id="Vector" d="M16.2761 3.5282H8.46956C7.54938 3.5282 6.66688 3.89244 6.01621 4.54079C5.36554 5.18914 5 6.0685 5 6.98541V22.5428C5 23.4597 5.36554 24.3391 6.01621 24.9875C6.66688 25.6358 7.54938 26 8.46956 26H25.8174C26.7375 26 27.62 25.6358 28.2707 24.9875C28.9214 24.3391 29.2869 23.4597 29.2869 22.5428V14.7641" stroke="#E58E09" stroke-linecap="round" stroke-linejoin="round"/>
<path id="Vector_2" d="M25.8173 5.25671L27.4706 6.98532M29.2869 1.74246C29.7494 2.21896 30.0054 2.85744 29.9999 3.5203C29.9944 4.18315 29.7277 4.81731 29.2574 5.2861L17.1434 17.3569L11.9391 19.0855L13.6739 13.8997L25.7948 1.71999C26.2209 1.29212 26.7911 1.03691 27.3951 1.0037C27.9991 0.970494 28.5941 1.16166 29.0648 1.54022L29.2869 1.74246Z" stroke="#E58E09" stroke-linecap="round" stroke-linejoin="round"/>
</g>
<defs>
<filter id="filter0_d_3_283" x="0.5" y="0.5" width="34" height="34.0001" filterUnits="userSpaceOnUse" color-interpolation-filters="sRGB">
<feFlood flood-opacity="0" result="BackgroundImageFix"/>
<feColorMatrix in="SourceAlpha" type="matrix" values="0 0 0 0 0 0 0 0 0 0 0 0 0 0 0 0 0 0 127 0" result="hardAlpha"/>
<feOffset dy="4"/>
<feGaussianBlur stdDeviation="2"/>
<feComposite in2="hardAlpha" operator="out"/>
<feColorMatrix type="matrix" values="0 0 0 0 0 0 0 0 0 0 0 0 0 0 0 0 0 0 0.25 0"/>
<feBlend mode="normal" in2="BackgroundImageFix" result="effect1_dropShadow_3_283"/>
<feBlend mode="normal" in="SourceGraphic" in2="effect1_dropShadow_3_283" result="shape"/>
</filter>
</defs>
</svg>
